<?xml version="1.0" standalone="no"?>
<!DOCTYPE svg PUBLIC "-//W3C//DTD SVG 20010904//EN"
 "http://www.w3.org/TR/2001/REC-SVG-20010904/DTD/svg10.dtd">
<svg version="1.0" xmlns="http://www.w3.org/2000/svg"
 width="512.000000pt" height="512.000000pt" viewBox="0 0 512.000000 512.000000"
 preserveAspectRatio="xMidYMid meet">
<metadata>
Created by potrace 1.16, written by Peter Selinger 2001-2019
</metadata>
<g transform="translate(0.000000,512.000000) scale(0.100000,-0.100000)"
fill="#000000" stroke="none">
<path d="M2572 5009 c-18 -6 -46 -24 -62 -42 -58 -63 -28 -134 71 -166 66 -22
70 -36 39 -130 -69 -208 -181 -417 -255 -478 -74 -61 -140 -87 -237 -91 -106
-5 -169 10 -277 67 -84 44 -137 88 -303 254 -135 135 -141 149 -78 191 94 62
20 156 -122 156 -66 0 -115 -17 -147 -51 -59 -64 26 -149 151 -149 46 0 64
-28 101 -160 29 -103 36 -240 17 -312 -14 -48 -78 -111 -130 -127 -58 -17
-167 -15 -237 5 -90 25 -258 113 -311 162 -7 6 -23 17 -35 23 -12 6 5 -13 38
-42 60 -55 170 -163 237 -235 46 -50 124 -153 171 -226 l37 -58 1434 0 1434 0
6 25 c6 22 67 119 86 135 3 3 27 32 54 65 57 71 128 147 220 232 36 35 66 65
66 68 0 7 -43 -15 -50 -25 -12 -18 -146 -84 -225 -111 -101 -34 -199 -39 -267
-13 -57 22 -114 78 -134 131 -31 81 -4 286 57 421 18 40 21 42 63 42 51 0 87
12 133 43 27 18 33 29 33 58 0 66 -75 105 -186 96 -68 -5 -104 -22 -130 -62
-23 -35 -12 -65 36 -98 22 -16 40 -35 40 -44 0 -23 -80 -116 -156 -184 -184
-162 -387 -266 -541 -276 -76 -5 -87 -4 -140 22 -62 31 -158 122 -198 190 -91
153 -167 339 -169 414 l-1 55 50 18 c57 20 105 67 105 102 0 34 -58 92 -105
105 -48 13 -137 13 -183 0z"/>
<path d="M4679 4363 c-32 -10 -51 -23 -58 -40 -12 -26 -6 -63 9 -63 5 0 12 -9
15 -20 5 -17 15 -20 57 -20 72 0 122 17 141 49 14 24 14 29 -1 53 -28 46 -96
63 -163 41z"/>
<path d="M520 4352 c-29 -14 -35 -23 -38 -52 -2 -32 1 -37 37 -57 28 -16 56
-23 96 -23 48 0 60 4 81 27 37 39 30 83 -16 105 -46 22 -116 22 -160 0z"/>
<path d="M753 3393 c-10 -4 -13 -185 -13 -858 l0 -853 43 -37 c23 -21 87 -81
143 -134 55 -53 147 -139 205 -191 57 -52 125 -115 151 -139 l48 -44 0 737 c0
710 1 736 19 736 10 0 30 -11 45 -25 15 -14 30 -25 34 -25 4 0 31 -18 60 -40
29 -22 55 -40 58 -40 3 0 23 -14 45 -32 l39 -31 38 29 c20 16 64 47 97 69 33
22 75 52 93 68 20 16 43 27 55 25 l22 -3 3 -1020 4 -1020 56 -49 c32 -27 109
-97 172 -155 63 -58 144 -133 179 -166 36 -33 88 -81 116 -107 l50 -47 3 1671
c2 1331 0 1673 -10 1680 -7 4 -83 7 -168 6 l-156 -3 -74 -50 c-41 -27 -77 -53
-80 -56 -4 -5 -58 -43 -219 -157 -14 -9 -50 -36 -81 -59 -90 -67 -100 -68
-162 -26 -70 48 -328 232 -342 245 -6 5 -43 30 -82 56 l-70 48 -155 1 c-85 1
-160 -1 -166 -4z"/>
<path d="M2816 3393 c-8 -8 -8 -3343 0 -3343 6 0 21 14 143 126 36 34 82 76
101 94 19 18 82 76 140 130 58 54 124 115 147 137 l43 39 2 730 3 729 595 5
595 5 3 669 c2 529 0 671 -10 678 -15 9 -1753 10 -1762 1z m1188 -435 c3 -13
6 -127 6 -254 0 -184 -3 -234 -14 -243 -9 -8 -99 -11 -307 -9 l-294 3 -3 250
c-1 137 0 255 3 262 3 10 71 13 304 13 l299 0 6 -22z"/>
</g>
</svg>
