<?xml version="1.0" standalone="no"?>
<!DOCTYPE svg PUBLIC "-//W3C//DTD SVG 20010904//EN"
 "http://www.w3.org/TR/2001/REC-SVG-20010904/DTD/svg10.dtd">
<svg version="1.0" xmlns="http://www.w3.org/2000/svg"
 width="192.000000pt" height="192.000000pt" viewBox="0 0 192.000000 192.000000"
 preserveAspectRatio="xMidYMid meet">
<metadata>
Created by potrace 1.16, written by Peter Selinger 2001-2019
</metadata>
<g transform="translate(0.000000,192.000000) scale(0.100000,-0.100000)"
fill="#000000" stroke="none">
<path d="M946 1861 c-23 -25 -15 -48 20 -57 23 -6 26 -10 21 -40 -9 -55 -71
-166 -110 -198 -76 -61 -183 -29 -293 86 l-57 59 23 21 23 21 -23 19 c-28 23
-62 23 -90 0 -21 -17 -21 -19 -5 -35 9 -9 28 -17 41 -17 30 0 53 -47 61 -126
5 -49 3 -55 -25 -83 -38 -38 -74 -40 -155 -7 l-57 24 54 -59 c30 -32 63 -72
73 -89 l17 -30 536 0 536 0 19 33 c10 17 43 58 73 89 l53 56 -58 -24 c-71 -29
-98 -30 -140 -4 -41 25 -51 72 -31 146 l15 53 -46 -45 c-52 -52 -128 -97 -188
-113 -77 -21 -133 21 -187 140 -14 30 -28 68 -32 85 -5 26 -2 30 25 41 54 20
36 63 -30 70 -36 4 -48 1 -63 -16z"/>
<path d="M280 951 l0 -319 103 -96 102 -96 3 262 c1 144 6 266 12 272 5 5 29
-6 59 -29 l51 -37 49 36 c27 20 54 36 60 36 8 0 11 -108 11 -384 l0 -384 33
-27 c17 -15 62 -56 98 -91 37 -35 70 -64 73 -64 3 0 6 279 6 620 l0 620 -62 0
c-62 0 -65 -2 -160 -70 -53 -39 -101 -70 -106 -70 -5 0 -54 32 -108 70 -96 69
-99 70 -161 70 l-63 0 0 -319z"/>
<path d="M1055 1258 c-3 -7 -4 -289 -3 -626 l3 -613 105 96 105 97 5 276 5
277 223 3 222 2 0 250 0 250 -330 0 c-255 0 -332 -3 -335 -12z m445 -238 l0
-100 -115 0 -115 0 0 100 0 100 115 0 115 0 0 -100z"/>
</g>
</svg>
